<?xml version="1.0" encoding="UTF-8" standalone="no"?>
<!-- Created with Inkscape (http://www.inkscape.org/) -->
<svg
   xmlns:dc="http://purl.org/dc/elements/1.1/"
   xmlns:cc="http://web.resource.org/cc/"
   xmlns:rdf="http://www.w3.org/1999/02/22-rdf-syntax-ns#"
   xmlns:svg="http://www.w3.org/2000/svg"
   xmlns="http://www.w3.org/2000/svg"
   xmlns:sodipodi="http://sodipodi.sourceforge.net/DTD/sodipodi-0.dtd"
   xmlns:inkscape="http://www.inkscape.org/namespaces/inkscape"
   width="422"
   height="432"
   id="svg2"
   sodipodi:version="0.32"
   inkscape:version="0.45.1"
   version="1.0"
   sodipodi:docbase="C:\Documents and Settings\Molumen\Desktop"
   sodipodi:docname="mule.svg"
   inkscape:output_extension="org.inkscape.output.svg.inkscape">
  <defs
     id="defs4" />
  <sodipodi:namedview
     id="base"
     pagecolor="#ffffff"
     bordercolor="#666666"
     borderopacity="1.0"
     gridtolerance="10000"
     guidetolerance="10"
     objecttolerance="10"
     inkscape:pageopacity="0.0"
     inkscape:pageshadow="2"
     inkscape:zoom="0.35"
     inkscape:cx="375"
     inkscape:cy="520"
     inkscape:document-units="px"
     inkscape:current-layer="layer1"
     inkscape:window-width="739"
     inkscape:window-height="573"
     inkscape:window-x="44"
     inkscape:window-y="58" />
  <metadata
     id="metadata7">
    <rdf:RDF>
      <cc:Work
         rdf:about="">
        <dc:format>image/svg+xml</dc:format>
        <dc:type
           rdf:resource="http://purl.org/dc/dcmitype/StillImage" />
      </cc:Work>
    </rdf:RDF>
  </metadata>
  <g
     inkscape:label="Layer 1"
     inkscape:groupmode="layer"
     id="layer1"
     transform="translate(-260.42857,-350.64789)">
    <path
       style="fill:#000000;transform: scale(-1, 1);transform-origin: right;"
       d="M 526.42857,780.51508 C 507.88095,778.62311 496.69187,772.55056 494.30777,763.08244 C 493.30668,759.10673 492.8798,758.69925 488.08079,757.13827 C 479.46078,754.33445 466.07282,746.90682 447.55758,734.65602 C 422.96185,718.38202 388.66844,692.47652 383.56526,686.31575 C 382.81544,685.41054 381.8668,684.87705 381.45718,685.13021 C 381.04755,685.38338 370.41103,686.73801 357.82048,688.14052 C 330.2555,691.21107 319.0459,693.07084 311.8296,695.7708 C 305.00261,698.32511 300.42857,702.09072 300.42857,705.15678 C 300.42857,706.6548 298.36763,709.57141 294.66177,713.31789 C 291.49003,716.52439 282.19397,728.14789 274.00386,739.14789 C 251.30338,769.63655 244.63042,776.64789 238.31372,776.64789 C 233.41538,776.64789 233.02598,773.94787 236.50341,764.09557 C 243.33576,744.73807 264.44875,699.4433 269.41976,693.47847 C 271.33535,691.17991 271.36249,691.17703 271.3953,693.26894 C 271.4136,694.43551 269.85495,700.51051 267.93163,706.76894 C 264.06866,719.33893 263.47271,723.68607 265.88718,721.68224 C 267.19212,720.59924 268.94375,716.41961 278.08425,692.57834 C 280.11241,687.28827 281.28609,685.64089 284.11058,684.1198 C 290.20256,680.83906 296.30494,672.89963 302.13296,660.67203 C 312.04711,639.87143 312.79536,638.53303 316.16328,635.57595 C 320.15938,632.06733 321.80314,631.91688 323.87187,634.8704 C 326.21248,638.21209 325.78264,642.61445 321.96681,654.38203 C 320.06284,660.25365 318.64406,665.19671 318.81397,665.36662 C 318.98388,665.53653 321.45454,661.58298 324.30432,656.58095 C 332.89938,641.49462 339.70271,633.46321 342.44924,635.16066 C 343.97415,636.10311 343.61243,638.14443 341.42857,640.92076 C 339.79378,642.99906 339.42857,644.97754 339.42857,651.75562 C 339.42857,656.95344 339.78039,659.69338 340.37136,659.09789 C 340.8899,658.57539 342.429,653.42289 343.79159,647.64789 C 348.42678,628.0028 352.27476,620.45201 357.45001,620.84635 C 361.12119,621.12608 362.51183,619.83658 374.81613,604.74328 C 387.70166,588.93702 388.3751,588.19387 391.68358,586.12996 C 393.90665,584.74314 394.72723,584.65087 395.93358,585.65204 C 397.95989,587.33373 398.04757,597.64789 396.03556,597.64789 C 393.62212,597.64789 393.37373,600.62006 395.44745,604.6849 C 398.14771,609.97784 410.17909,623.64789 412.1373,623.64789 C 413.00123,623.64789 414.30588,624.43539 415.03652,625.39789 C 417.27389,628.34526 416.57484,629.13393 413.92857,626.64789 L 411.42857,624.29926 L 411.42857,628.53076 C 411.42857,635.5355 413.39228,641.43957 416.62752,644.16185 C 418.2525,645.52917 420.05528,646.64789 420.6337,646.64789 C 421.21212,646.64789 424.80104,643.70872 428.60908,640.11641 C 437.96817,631.28753 442.75074,627.96376 448.87197,626.03421 L 454.03389,624.40706 L 457.15431,627.52747 C 460.86843,631.24159 463.91367,631.47638 468.4437,628.39789 C 475.18005,623.82004 477.87941,612.78336 473.67453,607.01099 L 471.73949,604.3546 L 476.58403,599.68508 C 479.30597,597.06148 481.42857,594.11058 481.42857,592.95006 C 481.42857,591.32827 468.51855,570.40454 465.90587,567.79186 C 465.5801,567.46609 466.73677,571.01293 468.47624,575.67372 C 472.72983,587.07097 473.42857,589.57079 473.42857,593.39129 C 473.42857,595.83198 472.99012,596.64405 471.67857,596.63258 C 468.9741,596.60891 467.96375,595.51585 466.13525,590.63547 C 461.85257,579.20469 453.44774,574.11682 431.39794,569.60721 C 423.48345,567.98854 415.4151,566.15631 413.46827,565.53557 C 406.34213,563.26346 398.37693,558.276 393.49171,553.02715 C 387.93511,547.05693 386.54596,546.69987 379.16626,549.34492 C 373.6862,551.30909 372.53959,550.69674 370.55992,544.74867 C 368.39034,538.23001 368.44865,538.17525 380.67857,535.24767 C 414.97387,527.03811 433.91364,526.76321 439.62053,534.39218 C 440.34289,535.35782 443.4077,537.39361 446.43124,538.91616 C 449.58394,540.50376 458.11287,547.23404 466.42857,554.69628 C 486.96685,573.12669 492.45223,576.48942 493.76836,571.45652 C 494.20762,569.77678 493.45074,568.50276 490.52658,565.99979 C 487.5788,563.4766 485.42486,559.82241 481.04986,549.92236 C 474.31742,534.68775 471.95024,530.59707 469.49522,529.95507 C 467.61405,529.46313 466.4615,525.31478 466.43958,518.95691 C 466.4252,514.78924 467.35226,514.35686 472.44782,516.15468 C 474.77553,516.97595 478.62232,517.64789 480.99623,517.64789 L 485.31244,517.64789 L 495.09998,498.89789 C 506.18451,477.66322 516.06075,457.01352 519.37245,448.14789 C 521.52174,442.3941 524.65341,429.5394 524.05231,428.9383 C 523.89351,428.77949 517.5007,434.99599 509.84607,442.75274 C 478.28771,474.73213 450.46839,496.30667 438.23004,498.29268 C 433.94483,498.98807 430.42857,496.17889 430.42857,492.05999 C 430.42857,489.57139 430.2655,489.49917 426.17857,490.17771 C 418.23826,491.49601 407.12799,494.63934 404.04549,496.43962 C 401.26753,498.06203 401.00364,498.6444 401.2844,502.53289 C 403.18626,528.87364 369.7315,503.06928 352.16737,464.64789 L 348.28164,456.14789 L 349.1051,471.14789 C 350.52096,496.93869 350.17174,514.64424 348.17456,518.32702 C 345.42905,523.38971 340.33224,523.85168 334.33519,519.5814 C 332.84174,518.51797 330.5643,517.64903 329.2742,517.65041 C 324.33972,517.65572 307.89544,522.86108 280.9237,532.95554 C 234.86377,550.19397 217.43403,555.14637 198.92857,556.25327 C 183.04614,557.20326 170.42395,553.65099 163.55627,546.29841 C 160.49832,543.02456 161.20641,539.93111 166.10206,535.17652 C 173.58294,527.91118 189.61271,525.56222 223.42857,526.77606 C 280.92201,528.83982 297.03718,526.97261 306.90594,517.10385 C 312.64925,511.36054 313.83274,500.71348 309.95083,489.71099 C 307.92298,483.96344 305.12224,450.90021 305.92182,442.14789 C 306.69376,433.69819 308.79603,425.82967 311.93843,419.62844 C 317.28818,409.07121 332.10748,394.77643 336.31719,396.11254 C 341.94093,397.89745 349.07029,410.66311 357.83838,434.64789 C 370.33325,468.82715 375.68412,480.37895 379.48126,481.37192 C 380.51585,481.64247 381.62078,482.67814 381.93667,483.6734 C 383.00518,487.03999 386.56143,490.64789 388.81131,490.64789 C 390.04198,490.64789 392.37182,489.36596 393.98873,487.79915 C 396.11472,485.73904 398.98127,484.49064 404.34347,483.28961 C 417.92961,480.24657 430.76402,472.74925 444.69374,459.71868 C 457.04687,448.16293 470.28915,431.31399 493.30402,397.86891 C 517.12799,363.24805 528.19038,351.64789 537.38226,351.64789 C 540.20621,351.64789 544.00901,357.81348 546.01716,365.64789 C 548.59798,375.71648 547.48792,399.80772 543.59444,418.22738 C 534.87926,459.45801 517.18263,501.82325 502.20397,517.31499 C 498.5714,521.07198 498.24058,521.8323 498.84248,525.04068 C 499.83135,530.31184 504.73774,536.08452 516.84076,546.21683 C 528.86069,556.27958 532.92732,561.07269 534.5464,567.08547 C 536.19013,573.18982 534.94545,578.78204 529.69254,588.8933 C 525.01842,597.89046 524.92928,598.23394 524.96608,607.10565 C 525.0281,622.06029 529.51314,631.89725 553.54864,669.79535 C 567.44995,691.7143 574.90636,705.72888 578.4764,716.64789 C 580.50236,722.84431 580.92857,726.14671 580.92857,735.64789 C 580.92857,746.31545 580.7174,747.58221 578.01125,753.14789 C 574.34817,760.6817 562.4122,772.71005 553.45132,777.89791 C 546.28549,782.04655 543.80096,782.28717 526.42857,780.51508 z M 529.64406,765.39789 C 517.64341,745.37244 506.42857,722.6159 506.42857,718.29032 C 506.42857,717.4519 506.87857,716.48781 507.42857,716.14789 C 509.08976,715.12122 508.53811,711.38153 506.09551,707.11093 C 503.69743,702.91817 503.63901,700.64789 505.9292,700.64789 C 507.35295,700.64789 509.07856,704.78514 512.47517,716.34226 C 515.07126,725.17559 516.61955,726.81224 518.97668,723.21481 C 519.90173,721.803 521.39434,720.64957 522.29358,720.65163 C 525.62053,720.65923 530.01267,724.52075 532.92857,730.00178 C 534.57857,733.10329 536.20708,735.64247 536.54749,735.64439 C 536.88789,735.64632 537.3773,730.90598 537.63506,725.11032 C 538.15731,713.36776 539.46171,710.33208 541.52881,716.04854 C 542.62538,719.08106 543.29813,719.64789 545.80072,719.64789 C 547.43442,719.64789 549.55142,720.35408 550.50515,721.2172 C 552.10842,722.66814 552.28892,722.56021 552.89817,719.78629 C 553.2606,718.13618 554.17518,716.27315 554.93058,715.64623 C 556.01599,714.74541 556.61368,715.10518 557.78057,717.36168 C 558.59266,718.93211 559.57077,721.88895 559.95413,723.93245 C 560.33749,725.97594 560.96107,727.64789 561.33986,727.64789 C 563.0081,727.64789 564.42857,724.97938 564.42857,721.84539 C 564.42857,714.31031 555.14284,691.81783 547.12185,679.92399 C 545.18425,677.05084 543.30706,673.37116 542.95032,671.74691 C 541.40537,664.7128 533.78359,661.43944 524.1496,663.67248 C 505.63362,667.96426 485.5029,685.56511 485.39677,697.55517 C 485.37927,699.53117 484.70427,702.0214 483.89677,703.08902 C 478.98901,709.57765 487.48942,737.21955 496.21613,743.1495 C 500.71171,746.20433 501.10826,746.22843 501.00797,743.4408 C 500.95285,741.90852 501.75787,740.9363 503.64092,740.261 C 506.06632,739.39119 506.74093,739.69933 510.01763,743.17364 C 512.03303,745.31059 516.14732,750.904 519.16049,755.60345 C 525.43913,765.39582 528.18748,768.64789 530.18444,768.64789 C 531.28326,768.64789 531.16482,767.93557 529.64406,765.39789 z M 454.42857,715.05182 C 454.42857,713.62397 456.40294,708.78647 458.81605,704.30182 C 461.22916,699.81716 463.51943,694.34789 463.90554,692.14789 C 465.16347,684.98024 468.51891,683.58967 472.66546,688.51758 L 475.08015,691.38726 L 477.46143,686.3716 C 478.77113,683.61298 481.90813,679.05912 484.43253,676.25191 C 491.08935,668.84933 493.47418,665.53071 492.85593,664.53035 C 492.55596,664.045 489.86209,663.64789 486.86955,663.64789 C 483.62987,663.64789 481.42857,663.2096 481.42857,662.56456 C 481.42857,661.96872 480.86607,661.66907 480.17857,661.89866 C 479.44072,662.14507 479.05762,663.57261 479.24353,665.38283 C 479.81219,670.91963 479.67189,670.88155 460.42857,660.27574 C 452.81438,656.07924 449.21155,655.7114 446.93328,658.89789 L 445.32459,661.14789 L 443.4215,658.84258 C 441.45346,656.45859 432.51213,651.231 431.73381,652.00931 C 431.49159,652.25153 433.43054,657.3318 436.04259,663.2988 C 439.27968,670.69367 440.81354,675.58063 440.86016,678.64789 C 440.92379,682.83336 440.73636,683.17001 438.17857,683.46431 C 434.80777,683.85217 434.77354,684.44096 437.87128,688.75001 C 445.7333,699.68632 450.42857,706.9989 450.42857,708.3072 C 450.42857,709.42193 449.35444,709.75642 446.17857,709.63068 C 443.84107,709.53814 441.51263,709.50415 441.00426,709.55515 C 439.45321,709.71077 444.73395,714.74703 447.92857,716.15889 C 452.75253,718.29084 454.42857,718.00538 454.42857,715.05182 z M 505.8728,660.73813 C 506.95531,658.9866 505.19275,656.64789 502.7902,656.64789 C 501.45678,656.64789 500.10678,655.97289 499.7902,655.14789 C 499.47361,654.32289 498.81274,653.64789 498.32158,653.64789 C 496.99553,653.64789 497.23983,659.05915 498.62857,660.44789 C 500.03559,661.85491 505.05822,662.05614 505.8728,660.73813 z M 520.88641,656.39789 C 520.50082,654.61039 519.74747,652.98369 519.21231,652.78301 C 518.67714,652.58232 517.08248,651.11982 515.66863,649.53301 C 513.93622,647.58868 512.13827,646.64789 510.15486,646.64789 C 507.44695,646.64789 507.26579,646.86766 507.88788,649.39789 C 509.3161,655.20682 514.29754,659.49192 519.75803,659.60875 C 521.30307,659.6418 521.47849,659.14264 520.88641,656.39789 z M 532.42857,653.1854 C 532.42857,651.18114 527.77721,641.02724 525.76199,638.63229 C 522.63262,634.91324 520.67464,634.83675 519.7616,638.39789 C 517.95115,645.45924 519.8109,650.60791 524.92857,652.70253 C 527.10067,653.59156 532.42857,653.93458 532.42857,653.1854 z M 525.7986,587.73531 C 526.14271,585.58339 526.67489,583.16957 526.98122,582.37127 C 527.36609,581.36832 526.63441,580.73906 524.61335,580.33485 C 522.8936,579.9909 521.4827,578.96289 521.18901,577.83981 C 520.45878,575.04741 522.81865,568.99033 526.34776,564.59882 C 529.91008,560.16599 530.20437,558.64789 527.50137,558.64789 C 523.02345,558.64789 515.42857,573.21446 515.42857,581.80289 C 515.42857,585.15233 517.76239,590.21609 519.65753,590.9786 C 523.52246,592.53364 525.1705,591.66326 525.7986,587.73531 z M 505.23894,581.32059 C 505.5442,577.70821 505.48971,577.64789 501.92155,577.64789 C 498.62294,577.64789 498.35601,577.85203 498.97946,579.89789 C 499.88082,582.85566 502.50529,585.78742 503.85558,585.34492 C 504.44572,585.15152 505.06823,583.34058 505.23894,581.32059 z M 340.45838,500.70358 C 339.88607,499.63421 338.9725,498.48406 338.42822,498.14768 C 336.93481,497.2247 328.70513,480.38868 327.4268,475.64131 C 325.89581,469.95566 326.07402,458.23066 327.88266,445.64789 C 330.08801,430.30526 330.03163,429.64789 326.51036,429.64789 C 322.22753,429.64789 320.52714,430.55659 318.89158,433.71941 C 316.97601,437.42373 317.03559,446.25166 319.06408,459.27586 C 320.28453,467.11197 320.41142,470.06504 319.56408,470.91238 C 317.7241,472.75236 318.24481,479.61449 320.50148,483.26586 C 322.63453,486.71721 339.22105,502.64789 340.68144,502.64789 C 341.13106,502.64789 341.03068,501.77295 340.45838,500.70358 z M 512.85987,421.02258 C 515.92265,416.82866 518.42857,412.80418 518.42857,412.07929 C 518.42857,411.35439 517.61144,410.17328 516.61272,409.45459 C 515.614,408.73591 514.50312,407.36039 514.1441,406.39789 C 513.24505,403.98762 512.15833,404.19571 508.92181,407.39789 C 502.90817,413.34774 500.67893,422.89825 504.42857,426.64789 C 505.52857,427.74789 506.62265,428.64789 506.85987,428.64789 C 507.09708,428.64789 509.79708,425.2165 512.85987,421.02258 z M 425.81392,615.06986 C 419.90192,612.91693 413.86663,607.36181 411.92984,602.2904 C 408.72203,593.89084 413.58807,588.39414 426.61072,585.70682 C 436.3372,583.69969 445.81594,587.55544 453.38778,596.59917 C 460.1147,604.63374 459.02048,606.1563 441.42857,613.23983 C 433.02199,616.62481 430.79922,616.88532 425.81392,615.06986 z "
       id="path2170" />
  </g>
</svg>
